# xmcd CD database file
# Generated: Fri Mar 26 10:38:53 2004 by WSPse's MP3c
#
# Track frame offsets:
#       150
#       32634
#       56307
#       78326
#       103498
#       131293
#       179539
#       204308
#       209372
#       232379
#       246570
#
# Disc length: 3659 seconds
#
# Revision: 0
# Processed by: cddbd v1.5PL3 Copyright (c) Steve Scherf et al.
# Submitted via: MP3c 0.27
#   WSPse mp3c-0.27 (NLS) - ENGLISH (Jan 31 2004)
#
DISCID=9f0e490b
DTITLE=Leo Kysela - The Souly Nights
DYEAR=1900
DGENRE=
TTITLE0=All along the watchtower
TTITLE1=Dr. Baby
TTITLE2=For a handful of trust
TTITLE3=Demon
TTITLE4=Down Town
TTITLE5=Pipes
TTITLE6=On the run
TTITLE7=Mr. Didg
TTITLE8=Little Sister
TTITLE9=Ain't no sunshine
TTITLE10=New Orleans waltz
EXTD=
EXTT0=
EXTT1=
EXTT2=
EXTT3=
EXTT4=
EXTT5=
EXTT6=
EXTT7=
EXTT8=
EXTT9=
EXTT10=
PLAYORDER=
